<?xml version="1.0" encoding="UTF-8" standalone="no"?>
<svg
   xmlns:dc="http://purl.org/dc/elements/1.1/"
   xmlns:cc="http://creativecommons.org/ns#"
   xmlns:rdf="http://www.w3.org/1999/02/22-rdf-syntax-ns#"
   xmlns:svg="http://www.w3.org/2000/svg"
   xmlns="http://www.w3.org/2000/svg"
   version="1.1"
   id="svg6932"
   viewBox="0 0 969.92603 190.29295"
   height="53.704899mm"
   width="273.73468mm">
  <defs
     id="defs6934" />
  <metadata
     id="metadata6937">
    <rdf:RDF>
      <cc:Work
         rdf:about="">
        <dc:format>image/svg+xml</dc:format>
        <dc:type
           rdf:resource="http://purl.org/dc/dcmitype/StillImage" />
        <dc:title></dc:title>
      </cc:Work>
    </rdf:RDF>
  </metadata>
  <g
     transform="translate(1275.7019,-1107.8108)"
     id="layer1">
    <g
       transform="matrix(1.25,0,0,-1.25,-1382.2445,4307.8973)"
       id="g6699">
      <g
         id="g1254"
         transform="translate(704.5527,2528.9417)">
        <path
           d="M 0,0 C 2.866,0.25 5.389,1.411 4.635,3.537 4.29,4.51 1.455,5.488 -0.327,5.4 -3.755,5.23 -7.059,2.634 -6.45,1.126 -5.548,-1.103 -2.931,-0.675 0,0"
           style="fill:#119ad5;fill-opacity:1;fill-rule:nonzero;stroke:none"
           id="path1256" />
      </g>
      <g
         id="g1258"
         transform="translate(726.4384,2530.5015)">
        <path
           d="M 0,0 C 4.159,0.839 6.72,1.992 5.764,3.948 5.27,4.959 2.585,5.783 0.7,5.816 -1.668,5.857 -4.773,2.85 -3.725,1.702 -2.844,0.737 -0.769,0.326 0,0"
           style="fill:#119ad5;fill-opacity:1;fill-rule:nonzero;stroke:none"
           id="path1260" />
      </g>
      <g
         id="g1262"
         transform="translate(775.0077,2528.8169)">
        <path
           d="M 0,0 C 1.764,2.177 3.661,3.531 3.627,4.702 3.572,6.606 1.016,7.142 -1.695,6.608 -4.25,6.104 -6.199,4.776 -5.221,3.093 -4.587,2.001 -2.472,1.399 0,0"
           style="fill:#119ad5;fill-opacity:1;fill-rule:nonzero;stroke:none"
           id="path1264" />
      </g>
      <g
         id="g1266"
         transform="translate(749.3496,2536.5835)">
        <path
           d="m 0,0 c -0.905,-1.275 -2.517,-2.599 -2.55,-3.814 -0.052,-1.835 2.247,-2.434 4.86,-1.92 2.664,0.524 4.225,1.991 3.377,3.601 C 5.134,-1.083 3.148,-0.474 1.804,0.332 1.203,0.221 0.601,0.111 0,0"
           style="fill:#119ad5;fill-opacity:1;fill-rule:nonzero;stroke:none"
           id="path1268" />
      </g>
      <g
         id="g1270"
         transform="translate(833.2378,2519.6873)">
        <path
           d="M 0,0 C 1.671,-0.429 3.322,-1.29 5.017,-1.186 7.624,-1.026 9.462,0.538 8.604,2.139 8.072,3.13 5.683,4.251 4.266,4.066 2.677,3.858 1.243,2.242 -0.258,1.239 -0.172,0.826 -0.086,0.413 0,0"
           style="fill:#119ad5;fill-opacity:1;fill-rule:nonzero;stroke:none"
           id="path1272" />
      </g>
      <g
         id="g1274"
         transform="translate(813.1487,2525.7278)">
        <path
           d="M 0,0 C 1.69,-0.441 3.373,-1.342 5.072,-1.216 7.586,-1.029 9.208,0.361 8.766,2.178 8.38,3.768 6.751,4.81 4.332,4.084 2.585,3.56 1.257,2.207 -0.257,1.224 -0.172,0.816 -0.086,0.408 0,0"
           style="fill:#119ad5;fill-opacity:1;fill-rule:nonzero;stroke:none"
           id="path1276" />
      </g>
      <g
         id="g1278"
         transform="translate(852.4678,2512.1265)">
        <path
           d="M 0,0 C 1.755,-0.297 3.563,-1.021 5.252,-0.79 7.83,-0.437 9.509,1.189 8.315,2.732 7.6,3.655 5.053,4.557 3.65,4.277 2.086,3.964 0.886,2.3 -0.472,1.224 -0.315,0.816 -0.157,0.408 0,0"
           style="fill:#119ad5;fill-opacity:1;fill-rule:nonzero;stroke:none"
           id="path1280" />
      </g>
      <g
         id="g1282"
         transform="translate(675.5108,2524.0127)">
        <path
           d="M 0,0 C 4.159,0.839 6.72,1.992 5.764,3.948 5.27,4.959 2.585,5.783 0.7,5.815 -1.668,5.857 -4.773,2.849 -3.725,1.702 -2.844,0.737 -0.769,0.326 0,0"
           style="fill:#119ad5;fill-opacity:1;fill-rule:nonzero;stroke:none"
           id="path1284" />
      </g>
      <g
         id="g1286"
         transform="translate(626.6101,2508.5437)">
        <path
           d="M 0,0 C 4.042,1.292 6.46,2.719 5.295,4.559 4.693,5.509 1.933,6.032 0.056,5.857 -2.302,5.638 -5.057,2.307 -3.89,1.282 -2.908,0.42 -0.8,0.24 0,0"
           style="fill:#119ad5;fill-opacity:1;fill-rule:nonzero;stroke:none"
           id="path1288" />
      </g>
      <g
         id="g1290"
         transform="translate(646.2083,2518.8093)">
        <path
           d="M 0,0 C 1.755,-0.297 3.563,-1.021 5.252,-0.79 7.83,-0.437 9.509,1.188 8.315,2.731 7.6,3.655 5.053,4.557 3.65,4.276 2.086,3.964 0.886,2.3 -0.472,1.224 -0.315,0.816 -0.157,0.408 0,0"
           style="fill:#119ad5;fill-opacity:1;fill-rule:nonzero;stroke:none"
           id="path1292" />
      </g>
      <g
         id="g1294"
         transform="translate(799.9566,2530.3369)">
        <path
           d="M 0,0 C -0.746,2.729 -2.154,4.331 -5.188,3.443 -6.755,2.984 -8.31,1.056 -8.587,-0.23 -8.937,-1.846 -4.829,-3.594 -2.991,-2.742 -1.445,-2.025 -0.58,-0.563 0,0"
           style="fill:#119ad5;fill-opacity:1;fill-rule:nonzero;stroke:none"
           id="path1296" />
      </g>
      <g
         id="g1298"
         transform="translate(473.9544,2520.2437)">
        <path
           d="M 0,0 C 2.876,0.081 5.463,1.093 4.834,3.259 4.547,4.25 1.774,5.393 -0.01,5.409 -3.443,5.441 -6.893,3.042 -6.373,1.502 -5.603,-0.776 -2.965,-0.502 0,0"
           style="fill:#119ad5;fill-opacity:1;fill-rule:nonzero;stroke:none"
           id="path1300" />
      </g>
      <g
         id="g1302"
         transform="translate(495.8939,2520.5188)">
        <path
           d="M 0,0 C 4.201,0.594 6.825,1.595 5.985,3.604 5.552,4.642 2.919,5.622 1.04,5.765 -1.322,5.944 -4.598,3.124 -3.619,1.917 -2.796,0.903 -0.749,0.371 0,0"
           style="fill:#119ad5;fill-opacity:1;fill-rule:nonzero;stroke:none"
           id="path1304" />
      </g>
      <g
         id="g1306"
         transform="translate(544.2811,2515.9922)">
        <path
           d="M 0,0 C 1.889,2.07 3.861,3.31 3.896,4.481 3.953,6.386 1.432,7.07 -1.305,6.696 -3.885,6.343 -5.909,5.131 -5.031,3.393 -4.462,2.266 -2.386,1.541 0,0"
           style="fill:#119ad5;fill-opacity:1;fill-rule:nonzero;stroke:none"
           id="path1308" />
      </g>
      <g
         id="g1310"
         transform="translate(519.122,2525.2483)">
        <path
           d="m 0,0 c -0.978,-1.22 -2.665,-2.447 -2.769,-3.658 -0.159,-1.829 2.1,-2.561 4.739,-2.201 2.69,0.367 4.334,1.74 3.582,3.397 C 5.061,-1.381 3.115,-0.658 1.82,0.225 1.213,0.15 0.607,0.075 0,0"
           style="fill:#119ad5;fill-opacity:1;fill-rule:nonzero;stroke:none"
           id="path1312" />
      </g>
      <g
         id="g1314"
         transform="translate(601.8765,2503.4673)">
        <path
           d="M 0,0 C 1.643,-0.526 3.241,-1.482 4.939,-1.478 7.551,-1.47 9.477,-0.017 8.714,1.631 8.242,2.652 5.922,3.912 4.497,3.809 2.898,3.695 1.372,2.166 -0.185,1.252 -0.123,0.835 -0.062,0.417 0,0"
           style="fill:#119ad5;fill-opacity:1;fill-rule:nonzero;stroke:none"
           id="path1316" />
      </g>
      <g
         id="g1318"
         transform="translate(582.1757,2510.6743)">
        <path
           d="M 0,0 C 1.661,-0.54 3.289,-1.538 4.992,-1.511 7.513,-1.472 9.213,-0.179 8.879,1.661 8.587,3.27 7.021,4.406 4.564,3.823 2.789,3.403 1.384,2.13 -0.185,1.237 -0.124,0.824 -0.062,0.412 0,0"
           style="fill:#119ad5;fill-opacity:1;fill-rule:nonzero;stroke:none"
           id="path1320" />
      </g>
      <g
         id="g1322"
         transform="translate(444.6736,2517.0242)">
        <path
           d="M 0,0 C 4.201,0.594 6.825,1.594 5.985,3.604 5.552,4.641 2.919,5.621 1.04,5.764 -1.322,5.944 -4.598,3.124 -3.619,1.917 -2.796,0.903 -0.749,0.371 0,0"
           style="fill:#119ad5;fill-opacity:1;fill-rule:nonzero;stroke:none"
           id="path1324" />
      </g>
      <g
         id="g1326"
         transform="translate(569.2762,2516.0481)">
        <path
           d="M 0,0 C -0.585,2.768 -1.896,4.45 -4.977,3.741 -6.568,3.375 -8.233,1.541 -8.586,0.273 -9.029,-1.32 -5.031,-3.305 -3.146,-2.562 -1.561,-1.937 -0.612,-0.528 0,0"
           style="fill:#119ad5;fill-opacity:1;fill-rule:nonzero;stroke:none"
           id="path1328" />
      </g>
      <g
         id="g1330"
         transform="translate(244.3153,2477.3796)">
        <path
           d="m 0,0 c -1.348,-1.047 -2.573,-2.676 -4.076,-2.996 -1.973,-0.421 -4.097,0.879 -3.78,3.128 0.19,1.353 1.924,3.288 3.184,3.475 1.388,0.205 3.028,-1.294 4.558,-2.05 C -0.076,1.038 -0.038,0.519 0,0"
           style="fill:#119ad5;fill-opacity:1;fill-rule:nonzero;stroke:none"
           id="path1332" />
      </g>
      <g
         id="g1334"
         transform="translate(197.4289,2507.3171)">
        <path
           d="M 0,0 C 1.975,1.827 3.329,3.874 4.158,3.68 5.831,3.288 7.219,1.678 8.724,0.57 7.744,-0.717 6.725,-3.086 5.792,-3.052 4.155,-2.992 2.57,-1.462 0,0"
           style="fill:#119ad5;fill-opacity:1;fill-rule:nonzero;stroke:none"
           id="path1336" />
      </g>
      <g
         id="g1338"
         transform="translate(257.9576,2468.6865)">
        <path
           d="m 0,0 c -1.21,-1.037 -2.482,-2.968 -3.615,-2.89 -1.463,0.102 -2.815,1.808 -4.215,2.824 0.99,1.269 1.858,3.425 3.003,3.584 1.421,0.197 3.071,-1.26 4.622,-2.002 C -0.137,1.011 -0.068,0.505 0,0"
           style="fill:#119ad5;fill-opacity:1;fill-rule:nonzero;stroke:none"
           id="path1340" />
      </g>
      <g
         id="g1342"
         transform="translate(379.5202,2408.4373)">
        <path
           d="m 0,0 c -0.849,0.974 -1.814,1.87 -2.529,2.934 -5.408,8.046 -10.875,16.056 -16.12,24.209 -13.575,21.097 -27.059,42.253 -40.55,63.404 -4.63,7.26 -4.675,8.051 2.542,12.902 16.283,10.946 32.754,21.613 49.17,32.362 7.634,5 15.388,9.822 22.933,14.95 2.2,1.496 3.596,0.94 4.928,-0.721 1.926,-2.4 3.732,-4.902 5.502,-7.422 10.225,-14.567 20.458,-29.128 30.615,-43.743 3.682,-5.299 7.158,-10.741 10.875,-16.339 0.575,-1.523 -0.115,0.612 1.9,-2.5 C 71.167,77.1 70.82,77.55 70.82,77.55 75.03,70.363 79.149,63.332 83.267,56.301 82.781,55.978 82.295,55.655 81.809,55.332 79.641,58.14 77.284,60.824 75.336,63.777 63.65,81.484 52.106,99.284 40.419,116.99 33.139,128.017 25.69,138.933 18.05,150.297 -7.836,131.636 -33.216,112.693 -60.995,96.864 -40.063,65.251 -17.738,34.124 1.464,1.01 0.976,0.673 0.488,0.337 0,0"
           style="fill:#119ad5;fill-opacity:1;fill-rule:nonzero;stroke:none"
           id="path1344" />
      </g>
      <g
         id="g1346"
         transform="translate(465.0751,2461.0178)">
        <path
           d="m 0,0 c -1.732,-1.695 -3.254,-3.701 -5.23,-5.037 -19.455,-13.157 -38.978,-26.215 -58.504,-39.266 -3.319,-2.218 -6.636,-4.486 -10.166,-6.322 -2.358,-1.227 -5.092,-1.731 -7.657,-2.558 -0.21,0.446 -0.421,0.892 -0.631,1.338 2.014,1.555 3.915,3.289 6.059,4.636 17.385,10.914 34.877,21.659 52.204,32.664 7.496,4.761 14.678,10.016 22.015,15.027 0.323,0.221 0.774,0.256 1.166,0.377 C -0.496,0.573 -0.248,0.286 0,0"
           style="fill:#119ad5;fill-opacity:1;fill-rule:nonzero;stroke:none"
           id="path1348" />
      </g>
      <g
         id="g1350"
         transform="translate(396.0639,2541.3118)">
        <path
           d="m 0,0 c -19.644,-15.729 -40.999,-29.004 -62.049,-42.76 3.004,-4.727 6.085,-9.576 9.166,-14.425 -0.42,-0.293 -0.84,-0.586 -1.26,-0.88 -0.758,0.85 -1.657,1.613 -2.248,2.566 -2.226,3.584 -4.43,7.188 -6.448,10.891 -0.402,0.738 -0.337,2.3 0.183,2.868 1.748,1.909 3.631,3.788 5.763,5.236 10.946,7.435 21.987,14.73 32.991,22.078 6.831,4.561 13.657,9.129 20.482,13.697 0.887,0.594 1.76,1.207 2.639,1.811 C -0.521,0.721 -0.26,0.361 0,0"
           style="fill:#119ad5;fill-opacity:1;fill-rule:nonzero;stroke:none"
           id="path1352" />
      </g>
      <g
         id="g1354"
         transform="translate(410.1412,2524.051)">
        <path
           d="m 0,0 c -21.828,-14.072 -43.655,-28.144 -65.482,-42.216 -0.23,0.217 -0.46,0.435 -0.69,0.652 1.324,1.328 2.473,2.916 4,3.943 14.668,9.866 29.343,19.725 44.147,29.384 4.666,3.045 9.717,5.503 14.619,8.18 0.899,0.491 1.93,0.741 2.9,1.103 C -0.338,0.697 -0.169,0.349 0,0"
           style="fill:#119ad5;fill-opacity:1;fill-rule:nonzero;stroke:none"
           id="path1356" />
      </g>
      <g
         id="g1358"
         transform="translate(387.4236,2426.6636)">
        <path
           d="m 0,0 c 3.158,2.16 5.852,4.002 8.645,5.913 -4.404,6.424 -8.669,12.71 -13.048,18.914 -0.367,0.519 -1.743,0.928 -2.244,0.652 -2.699,-1.489 -5.271,-3.211 -8.081,-4.974 C -9.545,13.289 -4.849,6.751 0,0 M 10.367,5.832 C 8.74,4.136 7.411,2.403 5.752,1.082 -1.25,-4.493 0.115,-4.476 -4.794,2.727 c -3.521,5.167 -6.766,10.524 -10.349,15.646 -1.859,2.657 -1.23,4.33 1.317,5.776 0.296,0.169 0.575,0.368 0.865,0.548 6.547,4.043 7.361,3.922 11.916,-2.182 C 2.22,18.14 5.414,13.712 8.587,9.271 9.207,8.403 9.586,7.363 10.367,5.832"
           style="fill:#119ad5;fill-opacity:1;fill-rule:nonzero;stroke:none"
           id="path1360" />
      </g>
      <g
         id="g1362"
         transform="translate(417.0676,2486.6926)">
        <path
           d="M 0,0 C 1.76,1.321 3.305,2.938 5.195,3.796 8.314,5.212 8.302,6.944 6.32,9.157 5.43,10.15 3.804,11.861 3.334,11.623 0.651,10.265 -2.09,8.698 -4.076,6.529 -4.541,6.02 -2.184,2.899 -1.08,1.007 -0.867,0.642 -0.442,0.402 0,0 M 10.618,9.016 C 10.5,3.699 6.082,1.656 2.685,-1.13 0.014,-3.32 -1.518,-2.911 -3.371,0.04 c -4.723,7.515 -2.146,12.676 6.876,13.682 0.576,0.064 1.306,-0.206 1.79,-0.559 1.79,-1.309 3.507,-2.718 5.323,-4.147"
           style="fill:#119ad5;fill-opacity:1;fill-rule:nonzero;stroke:none"
           id="path1364" />
      </g>
      <g
         id="g1366"
         transform="translate(411.9799,2443.0457)">
        <path
           d="m 0,0 c -1.142,1.739 -2.003,3.367 -3.189,4.709 -0.5,0.566 -1.942,0.998 -2.51,0.685 -2.544,-1.407 -4.927,-3.103 -7.658,-4.884 1.853,-2.467 3.371,-4.49 4.9,-6.527 C -5.549,-3.948 -2.975,-2.116 0,0 m 2.616,-0.559 c -3.032,-2.453 -5.71,-4.548 -8.305,-6.742 -2.138,-1.807 -3.881,-2.142 -5.334,0.79 -0.855,1.725 -1.865,3.394 -2.976,4.967 -1.768,2.506 -0.807,4.139 1.407,5.649 C -5.629,8.854 -4.101,8.646 0.96,2.006 1.57,1.207 2.057,0.314 2.616,-0.559"
           style="fill:#119ad5;fill-opacity:1;fill-rule:nonzero;stroke:none"
           id="path1368" />
      </g>
      <g
         id="g1370"
         transform="translate(434.7879,2478.2964)">
        <path
           d="m 0,0 c -4.405,7.048 -4.985,7.143 -11.054,2.208 -0.688,-0.56 -1.416,-1.069 -2.304,-1.736 1.883,-2.382 3.441,-4.353 4.933,-6.241 C -5.347,-3.661 -2.758,-1.889 0,0 m -9.114,-9.184 c -1.677,2.619 -3.495,5.123 -4.914,7.837 -0.581,1.112 -0.858,3.541 -0.316,3.892 3.083,2 6.437,3.593 9.762,5.192 0.325,0.156 1.178,-0.498 1.622,-0.94 0.881,-0.877 1.662,-1.857 2.459,-2.815 3.42,-4.111 3.419,-4.116 -0.831,-7.56 -1.673,-1.356 -3.335,-2.726 -5.043,-4.036 -0.617,-0.473 -1.356,-0.787 -2.739,-1.57"
           style="fill:#119ad5;fill-opacity:1;fill-rule:nonzero;stroke:none"
           id="path1372" />
      </g>
      <g
         id="g1374"
         transform="translate(419.1316,2446.9199)">
        <path
           d="M 0,0 C 3.36,2.56 6.027,4.591 9.144,6.966 7.356,8.961 5.354,12.333 4.39,12.058 1.482,11.23 -1.678,9.45 -3.37,7.069 -4.076,6.074 -1.326,2.625 0,0 M 11.652,6.312 C 8.618,3.778 6.049,1.541 3.382,-0.571 0.471,-2.875 -0.702,-2.634 -2.609,0.422 c -4.984,7.987 -4.615,9.049 3.98,12.922 2.373,1.069 4.172,1.252 5.77,-1.244 1.276,-1.993 2.908,-3.758 4.511,-5.788"
           style="fill:#119ad5;fill-opacity:1;fill-rule:nonzero;stroke:none"
           id="path1376" />
      </g>
      <g
         id="g1378"
         transform="translate(391.5018,2490.6514)">
        <path
           d="M 0,0 C 2.12,1.477 4.121,2.946 6.202,4.291 7.477,5.115 9.229,5.858 7.522,7.531 6.02,9.003 6.184,12.96 2.265,11.203 -4.849,8.014 -5.285,6.526 -0.575,0.382 -0.51,0.297 -0.389,0.255 0,0 M 11.273,5.399 C 8.021,2.898 5.165,0.676 2.279,-1.508 c -2.138,-1.619 -3.921,-1.524 -5.19,1.125 -0.685,1.429 -1.499,2.797 -2.253,4.194 -2.043,3.783 -1.828,4.616 1.745,6.77 6.996,4.216 7.425,4.149 12.554,-2.165 0.699,-0.86 1.287,-1.81 2.138,-3.017"
           style="fill:#119ad5;fill-opacity:1;fill-rule:nonzero;stroke:none"
           id="path1380" />
      </g>
      <g
         id="g1382"
         transform="translate(393.9175,2472.1697)">
        <path
           d="m 0,0 c -1.948,1.92 -4.053,5.317 -5.387,5.037 -2.858,-0.599 -5.9,-2.67 -7.636,-5.04 -0.638,-0.871 2.202,-4.287 3.488,-6.602 C -6.145,-4.257 -3.38,-2.341 0,0 m -4.224,8.499 c 0.607,-1.089 1.051,-2.316 1.847,-3.242 4.84,-5.639 4.866,-5.616 -0.778,-10.345 -6.741,-5.648 -6.741,-5.648 -10.878,1.965 -2.391,4.4 -2.206,5.192 2.286,7.693 2.082,1.159 4.316,2.043 6.482,3.052 0.347,0.292 0.694,0.585 1.041,0.877"
           style="fill:#119ad5;fill-opacity:1;fill-rule:nonzero;stroke:none"
           id="path1384" />
      </g>
      <g
         id="g1386"
         transform="translate(435.7204,2457.906)">
        <path
           d="M 0,0 C 3.08,2.195 5.726,4.081 8.566,6.104 7.375,7.856 6.402,9.531 5.163,10.978 4.741,11.47 3.42,11.792 2.899,11.499 0.274,10.026 -2.221,8.324 -5.039,6.526 -3.134,4.058 -1.626,2.105 0,0 M 10.476,6.11 C 10.155,5.679 9.826,5.062 9.339,4.617 6.986,2.469 4.656,0.286 2.188,-1.724 c -1.861,-1.515 -3.573,-1.171 -4.81,0.986 -0.34,0.593 -0.753,1.143 -1.109,1.726 -4.185,6.841 -3.658,8.498 3.816,11.376 1.532,0.59 3.879,1.647 4.697,1.01 2.186,-1.706 3.751,-4.211 5.543,-6.415 0.123,-0.151 0.084,-0.434 0.151,-0.849"
           style="fill:#119ad5;fill-opacity:1;fill-rule:nonzero;stroke:none"
           id="path1388" />
      </g>
      <g
         id="g1390"
         transform="translate(416.1278,2507.1091)">
        <path
           d="M 0,0 C -1.127,1.723 -1.98,3.333 -3.147,4.668 -3.65,5.243 -5.069,5.729 -5.618,5.428 -8.222,4.003 -10.67,2.292 -13.298,0.603 -11.483,-1.971 -10.07,-3.975 -8.571,-6.1 -5.695,-4.053 -3.046,-2.168 0,0 m 2.68,-0.432 c -3.056,-2.475 -5.789,-4.665 -8.496,-6.886 -2.217,-1.82 -4.076,-1.748 -5.531,0.925 -0.381,0.7 -0.829,1.362 -1.223,2.056 -3.687,6.491 -3.458,7.212 3.27,10.343 5.173,2.407 5.181,2.413 8.812,-2.216 C 0.61,2.389 1.65,0.944 2.68,-0.432"
           style="fill:#119ad5;fill-opacity:1;fill-rule:nonzero;stroke:none"
           id="path1392" />
      </g>
      <g
         id="g1394"
         transform="translate(367.928,2475.7375)">
        <path
           d="m 0,0 c -1.122,1.732 -1.974,3.354 -3.14,4.706 -0.495,0.573 -1.909,1.058 -2.458,0.76 -2.64,-1.434 -5.127,-3.15 -7.853,-4.883 1.832,-2.469 3.293,-4.438 4.863,-6.554 C -5.673,-3.944 -3.004,-2.089 0,0 m 2.209,-0.748 c -2.903,-2.329 -5.811,-4.65 -8.704,-6.991 -1.81,-1.465 -3.224,-1.286 -4.374,0.847 -0.861,1.597 -1.91,3.092 -2.813,4.667 -2.143,3.743 -1.908,4.623 1.713,6.802 7.464,4.492 10.765,3.335 14.242,-4.997 0.036,-0.086 -0.04,-0.218 -0.064,-0.328"
           style="fill:#119ad5;fill-opacity:1;fill-rule:nonzero;stroke:none"
           id="path1396" />
      </g>
      <g
         id="g1398"
         transform="translate(408.8977,2482.0166)">
        <path
           d="m 0,0 c -0.958,1.763 -1.632,3.36 -2.643,4.703 -0.472,0.626 -1.899,1.295 -2.379,1.026 -2.677,-1.5 -5.197,-3.281 -7.875,-5.034 1.944,-2.588 3.425,-4.56 4.917,-6.546 C -5.244,-3.844 -2.793,-2.048 0,0 M 2.121,0.045 C 1.836,-0.496 1.661,-1.25 1.187,-1.657 -1.309,-3.802 -3.781,-6.007 -6.498,-7.842 -7.18,-8.302 -9.21,-7.87 -9.79,-7.165 c -1.573,1.913 -2.697,4.194 -4.005,6.324 -1.255,2.045 -0.767,3.67 1.196,4.916 0.863,0.549 1.744,1.075 2.648,1.551 C -3.654,8.938 -0.847,7.849 1.734,1.112 1.855,0.795 1.965,0.475 2.121,0.045"
           style="fill:#119ad5;fill-opacity:1;fill-rule:nonzero;stroke:none"
           id="path1400" />
      </g>
      <g
         id="g1402"
         transform="translate(418.6284,2467.8508)">
        <path
           d="m 0,0 c -1.107,1.778 -1.953,3.401 -3.074,4.803 -0.43,0.537 -1.744,1.028 -2.216,0.761 -2.7,-1.521 -5.267,-3.277 -8.018,-5.042 1.94,-2.607 3.405,-4.577 4.931,-6.63 C -5.493,-4.006 -2.937,-2.142 0,0 M 2.429,-0.306 C 2.261,-0.574 2.11,-1.035 1.793,-1.288 c -2.757,-2.201 -5.524,-4.39 -8.328,-6.53 -1.898,-1.447 -3.38,-0.853 -4.48,1.103 -0.781,1.39 -1.531,2.799 -2.333,4.178 -2.365,4.063 -2.161,4.941 1.776,7.294 0.488,0.292 0.987,0.594 1.52,0.776 2.116,0.724 4.989,2.601 6.218,1.843 C -1.369,5.855 0.205,2.887 2.133,0.505 2.268,0.339 2.292,0.083 2.429,-0.306"
           style="fill:#119ad5;fill-opacity:1;fill-rule:nonzero;stroke:none"
           id="path1404" />
      </g>
      <g
         id="g1406"
         transform="translate(370.6962,2486.4878)">
        <path
           d="m 0,0 c 1.639,-2.31 3.063,-4.317 4.592,-6.473 3.026,2.151 5.764,4.096 8.469,6.019 C 9.082,6.691 9.873,7.072 2.597,2.179 1.766,1.62 1.05,0.889 0,0 M 16.064,-0.717 C 12.712,-3.358 9.873,-5.634 6.989,-7.852 4.988,-9.39 3.223,-9.321 1.947,-6.884 c -0.159,0.303 -0.392,0.575 -0.503,0.892 -0.938,2.686 -1.855,5.379 -2.778,8.07 3.263,1.77 6.506,3.581 9.819,5.25 0.374,0.189 1.345,-0.259 1.707,-0.691 1.963,-2.336 3.821,-4.761 5.872,-7.354"
           style="fill:#119ad5;fill-opacity:1;fill-rule:nonzero;stroke:none"
           id="path1408" />
      </g>
      <g
         id="g1410"
         transform="translate(402.9283,2457.6157)">
        <path
           d="m 0,0 c -1.765,2.021 -3.808,5.59 -4.85,5.319 -2.901,-0.757 -6.041,-2.648 -7.722,-5.048 -0.701,-1 2.056,-4.422 3.306,-6.873 C -6.027,-4.294 -3.361,-2.395 0,0 m 2.494,-0.571 c -3.225,-2.575 -6.054,-4.822 -8.87,-7.085 -2.532,-2.034 -4.33,-1.297 -5.629,1.447 -0.388,0.819 -0.779,1.638 -1.213,2.433 -3.003,5.493 -2.865,6.409 2.71,8.982 7.554,3.486 5.547,3.2 10.185,-2.094 0.955,-1.09 1.769,-2.303 2.817,-3.683"
           style="fill:#119ad5;fill-opacity:1;fill-rule:nonzero;stroke:none"
           id="path1412" />
      </g>
      <g
         id="g1414"
         transform="translate(376.2249,2460.8071)">
        <path
           d="m 0,0 c -2.885,7.478 -6.017,7.627 -12.028,0.527 1.434,-2.003 2.908,-4.061 4.414,-6.165 C -4.829,-3.577 -2.392,-1.772 0,0 M -3.618,8.63 C -3.079,8.177 -2.428,7.769 -1.955,7.21 3.324,0.972 3.259,0.135 -2.901,-5.222 -3.759,-5.968 -4.649,-6.698 -5.607,-7.303 -7.45,-8.466 -9.05,-8.311 -10.182,-6.23 c -0.654,1.201 -1.345,2.382 -2.033,3.564 -2.813,4.828 -2.581,5.679 2.508,8.37 1.911,1.01 3.897,1.878 6.089,2.926"
           style="fill:#119ad5;fill-opacity:1;fill-rule:nonzero;stroke:none"
           id="path1416" />
      </g>
      <g
         id="g1418"
         transform="translate(397.9395,2544.0999)">
        <path
           d="m 0,0 c 3.908,-5.428 7.817,-10.855 11.725,-16.283 l -1.458,-1.028 C 5.496,-12.487 2.183,-6.619 -1.138,-0.755 -0.758,-0.504 -0.379,-0.252 0,0"
           style="fill:#119ad5;fill-opacity:1;fill-rule:nonzero;stroke:none"
           id="path1420" />
      </g>
      <g
         id="g1422"
         transform="translate(214.9272,2493.554)">
        <path
           d="M 0,0 C -1.174,1.259 -3.094,2.416 -3.285,3.81 -3.436,4.915 -1.527,7.255 -0.424,7.325 0.825,7.404 2.922,5.773 3.296,4.491 3.631,3.342 2.127,1.656 1.435,0.207 0.957,0.138 0.478,0.069 0,0"
           style="fill:#119ad5;fill-opacity:1;fill-rule:nonzero;stroke:none"
           id="path1424" />
      </g>
      <g
         id="g1426"
         transform="translate(268.8241,2458.78)">
        <path
           d="m 0,0 c -0.972,1.25 -2.557,2.43 -2.711,3.773 -0.112,0.978 1.915,3.212 2.552,3.06 C 1.287,6.487 3.071,5.233 3.54,3.926 3.86,3.034 2.189,1.429 1.409,0.143 0.939,0.095 0.47,0.048 0,0"
           style="fill:#119ad5;fill-opacity:1;fill-rule:nonzero;stroke:none"
           id="path1428" />
      </g>
      <g
         id="g1430"
         transform="translate(305.6199,2453.0337)">
        <path
           d="m 0,0 c -1.174,-0.917 -2.37,-2.581 -3.516,-2.547 -1.221,0.036 -3.22,1.575 -3.356,2.649 -0.135,1.071 1.499,3.212 2.578,3.369 C -3.018,3.657 -1.506,2.22 -0.097,1.486 -0.064,0.991 -0.032,0.495 0,0"
           style="fill:#119ad5;fill-opacity:1;fill-rule:nonzero;stroke:none"
           id="path1432" />
      </g>
      <g
         id="g1434"
         transform="translate(660.5139,2471.0647)">
        <path
           d="m 0,0 c -0.835,-1.652 -1.284,-3.995 -2.622,-4.744 -1.127,-0.63 -4.214,0.105 -4.743,1.124 -0.59,1.14 0.216,3.877 1.363,4.809 1.03,0.837 3.347,0.168 5.096,0.163 C -0.604,0.901 -0.302,0.451 0,0"
           style="fill:#119ad5;fill-opacity:1;fill-rule:nonzero;stroke:none"
           id="path1436" />
      </g>
      <g
         id="g1438"
         transform="translate(192.3075,2519.5203)">
        <path
           d="M 0,0 C -1.097,-1.009 -2.286,-2.91 -3.268,-2.809 -4.622,-2.67 -6.251,-1.228 -6.891,0.082 -7.18,0.675 -5.449,3.156 -4.498,3.24 -3.122,3.361 -1.622,2.085 -0.175,1.405 -0.116,0.937 -0.058,0.469 0,0"
           style="fill:#119ad5;fill-opacity:1;fill-rule:nonzero;stroke:none"
           id="path1440" />
      </g>
      <g
         id="g1442"
         transform="translate(659.9854,2454.0396)">
        <path
           d="m 0,0 c -1,-1.586 -1.675,-3.737 -3.112,-4.564 -1.003,-0.578 -4.315,0.458 -4.384,1.12 -0.173,1.66 0.414,4.087 1.652,5.111 0.937,0.775 3.348,-0.138 5.103,-0.3 C -0.494,0.911 -0.247,0.456 0,0"
           style="fill:#119ad5;fill-opacity:1;fill-rule:nonzero;stroke:none"
           id="path1444" />
      </g>
      <g
         id="g1446"
         transform="translate(334.5558,2448.176)">
        <path
           d="m 0,0 c -1.788,2.059 -3.589,3.228 -3.552,4.336 0.039,1.199 1.711,3.16 2.826,3.274 C 0.355,7.722 2.346,6.075 2.617,4.896 2.864,3.823 1.339,2.342 0,0"
           style="fill:#119ad5;fill-opacity:1;fill-rule:nonzero;stroke:none"
           id="path1448" />
      </g>
      <g
         id="g1450"
         transform="translate(627.0822,2498.2393)">
        <path
           d="m 0,0 c -0.919,-1.495 -1.568,-3.809 -2.831,-4.265 -1.395,-0.503 -4.13,0.21 -4.828,1.306 -0.592,0.931 0.433,3.991 1.556,4.601 1.372,0.746 3.592,-0.081 5.445,-0.228 C -0.438,0.943 -0.219,0.471 0,0"
           style="fill:#119ad5;fill-opacity:1;fill-rule:nonzero;stroke:none"
           id="path1452" />
      </g>
      <g
         id="g1454"
         transform="translate(615.8213,2491.1187)">
        <path
           d="m 0,0 c -0.911,-1.623 -1.47,-3.947 -2.843,-4.648 -1.124,-0.574 -4.136,0.347 -4.63,1.41 -0.53,1.139 0.436,3.84 1.623,4.706 1.069,0.781 3.318,0.003 5.047,-0.087 C -0.535,0.921 -0.268,0.46 0,0"
           style="fill:#119ad5;fill-opacity:1;fill-rule:nonzero;stroke:none"
           id="path1456" />
      </g>
      <g
         id="g1458"
         transform="translate(645.2137,2438.2029)">
        <path
           d="m 0,0 c -2.681,1.153 -5.287,1.526 -5.538,2.562 -0.354,1.464 0.576,3.987 1.84,4.959 C -2.892,8.141 0.25,7.26 0.98,6.162 1.665,5.132 0.556,2.931 0,0"
           style="fill:#119ad5;fill-opacity:1;fill-rule:nonzero;stroke:none"
           id="path1460" />
      </g>
      <g
         id="g1462"
         transform="translate(627.9789,2438.0049)">
        <path
           d="m 0,0 c -1.661,0.737 -4.084,1.07 -4.747,2.336 -0.551,1.051 0.549,4.06 1.688,4.631 C -1.828,7.584 0.972,6.894 1.831,5.814 2.597,4.852 1.648,2.582 1.456,0.889 0.971,0.593 0.485,0.296 0,0"
           style="fill:#119ad5;fill-opacity:1;fill-rule:nonzero;stroke:none"
           id="path1464" />
      </g>
      <g
         id="g1466"
         transform="translate(637.1589,2498.0852)">
        <path
           d="m 0,0 c 1.631,-0.803 3.842,-1.237 4.687,-2.541 0.556,-0.858 -0.66,-4.118 -1.433,-4.288 -1.69,-0.373 -4.193,0.011 -5.23,1.099 -0.759,0.797 0.289,3.208 0.531,4.899 C -0.963,-0.554 -0.482,-0.277 0,0"
           style="fill:#119ad5;fill-opacity:1;fill-rule:nonzero;stroke:none"
           id="path1468" />
      </g>
      <g
         id="g1470"
         transform="translate(601.5105,2476.3621)">
        <path
           d="M 0,0 C 0.921,1.619 1.496,3.958 2.87,4.637 4.033,5.211 7.048,4.31 7.548,3.244 8.077,2.115 7.07,-0.6 5.87,-1.47 4.789,-2.253 2.537,-1.476 0.802,-1.386 0.535,-0.924 0.267,-0.462 0,0"
           style="fill:#119ad5;fill-opacity:1;fill-rule:nonzero;stroke:none"
           id="path1472" />
      </g>
      <g
         id="g1474"
         transform="translate(654.8014,2487.1401)">
        <path
           d="m 0,0 c -1.388,-2.717 -1.925,-5.253 -3.034,-5.582 -1.563,-0.464 -3.55,0.706 -5.355,1.177 0.592,1.657 0.725,4.007 1.906,4.774 C -5.325,1.122 -3.101,0.265 0,0"
           style="fill:#119ad5;fill-opacity:1;fill-rule:nonzero;stroke:none"
           id="path1476" />
      </g>
      <g
         id="g1478"
         transform="translate(607.3705,2460.1648)">
        <path
           d="M 0,0 C -1.515,0.771 -3.872,1.209 -4.315,2.405 -4.786,3.676 -3.442,5.665 -2.89,7.341 -1.194,6.881 1.266,6.915 1.986,5.823 2.708,4.728 1.696,2.51 1.445,0.784 0.963,0.522 0.482,0.261 0,0"
           style="fill:#119ad5;fill-opacity:1;fill-rule:nonzero;stroke:none"
           id="path1480" />
      </g>
      <g
         id="g1482"
         transform="translate(289.2878,2458.0454)">
        <path
           d="m 0,0 c -2.04,-1.761 -3.206,-3.551 -4.321,-3.521 -1.241,0.034 -2.437,1.727 -3.652,2.697 0.972,1.174 1.794,3.076 2.959,3.317 C -3.874,2.729 -2.383,1.272 0,0"
           style="fill:#119ad5;fill-opacity:1;fill-rule:nonzero;stroke:none"
           id="path1484" />
      </g>
      <g
         id="g1486"
         transform="translate(321.6969,2451.5991)">
        <path
           d="m 0,0 c -1.172,-0.921 -2.373,-2.602 -3.508,-2.559 -1.235,0.047 -2.408,1.696 -3.608,2.646 0.995,1.166 1.841,3.044 3.028,3.291 1.128,0.235 2.612,-1.234 3.939,-1.953 L 0,0 Z"
           style="fill:#119ad5;fill-opacity:1;fill-rule:nonzero;stroke:none"
           id="path1488" />
      </g>
      <g
         id="g1490"
         transform="translate(613.7497,2446.917)">
        <path
           d="M 0,0 C -1.557,0.713 -3.94,1.057 -4.444,2.239 -4.97,3.474 -3.689,5.514 -3.198,7.203 -1.479,6.789 0.953,6.888 1.755,5.813 2.527,4.778 1.616,2.528 1.444,0.812 0.963,0.542 0.481,0.271 0,0"
           style="fill:#119ad5;fill-opacity:1;fill-rule:nonzero;stroke:none"
           id="path1492" />
      </g>
      <g
         id="g1494"
         transform="translate(229.806,2487.1238)">
        <path
           d="m 0,0 c -1.205,-0.867 -2.498,-2.517 -3.592,-2.395 -1.262,0.141 -2.348,1.847 -3.51,2.873 1.051,1.118 1.996,2.97 3.185,3.143 C -2.77,3.787 -1.372,2.219 -0.085,1.413 -0.057,0.942 -0.028,0.471 0,0"
           style="fill:#119ad5;fill-opacity:1;fill-rule:nonzero;stroke:none"
           id="path1496" />
      </g>
      <g
         id="g1498"
         transform="translate(140.3354,2521.4229)">
        <path
           d="m 0,0 c -0.789,1.514 -1.222,3.505 -2.454,4.424 -1.617,1.205 -4.09,0.91 -4.741,-1.266 -0.391,-1.309 0.377,-3.791 1.445,-4.487 1.175,-0.765 3.291,-0.087 4.997,-0.038 C -0.502,-0.912 -0.251,-0.456 0,0"
           style="fill:#119ad5;fill-opacity:1;fill-rule:nonzero;stroke:none"
           id="path1500" />
      </g>
      <g
         id="g1502"
         transform="translate(85.2341,2513.7795)">
        <path
           d="M 0,0 C 1.032,-2.485 1.409,-4.91 2.243,-5.079 3.927,-5.421 5.86,-4.537 7.691,-4.158 7.337,-2.58 7.399,-0.001 6.538,0.357 5.024,0.986 2.946,0.256 0,0"
           style="fill:#119ad5;fill-opacity:1;fill-rule:nonzero;stroke:none"
           id="path1504" />
      </g>
      <g
         id="g1506"
         transform="translate(156.3607,2523.6309)">
        <path
           d="m 0,0 c -0.667,1.448 -1.017,3.733 -2.079,4.134 -1.372,0.519 -3.314,-0.468 -5.01,-0.807 0.371,-1.567 0.26,-3.889 1.234,-4.51 1.21,-0.772 3.317,-0.137 5.036,-0.109 C -0.546,-0.862 -0.273,-0.431 0,0"
           style="fill:#119ad5;fill-opacity:1;fill-rule:nonzero;stroke:none"
           id="path1508" />
      </g>
      <g
         id="g1510"
         transform="translate(106.8791,2518.9861)">
        <path
           d="m 0,0 c -1.592,-0.655 -3.82,-0.905 -4.575,-2.092 -0.598,-0.941 0.16,-3.865 1.133,-4.388 1.102,-0.593 3.688,0.014 4.563,1.023 0.784,0.905 0.121,3.064 0.097,4.67 C 0.812,-0.525 0.406,-0.262 0,0"
           style="fill:#119ad5;fill-opacity:1;fill-rule:nonzero;stroke:none"
           id="path1512" />
      </g>
      <g
         id="g1514"
         transform="translate(170.3696,2528.0999)">
        <path
           d="m 0,0 c -1.405,-0.73 -3.338,-1.141 -4.038,-2.298 -0.51,-0.842 0.4,-3.718 1.042,-3.846 1.459,-0.289 3.603,0.107 4.575,1.099 0.663,0.677 -0.186,2.833 -0.358,4.327 C 0.814,-0.479 0.407,-0.239 0,0"
           style="fill:#119ad5;fill-opacity:1;fill-rule:nonzero;stroke:none"
           id="path1516" />
      </g>
      <g
         id="g1518"
         transform="translate(123.0839,2518.6216)">
        <path
           d="M 0,0 C -0.734,1.291 -1.22,3.329 -2.266,3.675 -3.47,4.073 -5.17,2.976 -6.654,2.529 c 0.489,-1.455 0.575,-3.532 1.584,-4.185 0.972,-0.63 2.897,0.212 4.403,0.407 C -0.445,-0.833 -0.222,-0.416 0,0"
           style="fill:#119ad5;fill-opacity:1;fill-rule:nonzero;stroke:none"
           id="path1520" />
      </g>
    </g>
  </g>
</svg>
