<?xml version="1.0" encoding="UTF-8" standalone="no"?>
<svg
   xmlns:dc="http://purl.org/dc/elements/1.1/"
   xmlns:cc="http://creativecommons.org/ns#"
   xmlns:rdf="http://www.w3.org/1999/02/22-rdf-syntax-ns#"
   xmlns:svg="http://www.w3.org/2000/svg"
   xmlns="http://www.w3.org/2000/svg"
   version="1.1"
   id="svg6932"
   viewBox="0 0 975.76349 209.76169"
   height="59.199409mm"
   width="275.38214mm">
  <defs
     id="defs6934" />
  <metadata
     id="metadata6937">
    <rdf:RDF>
      <cc:Work
         rdf:about="">
        <dc:format>image/svg+xml</dc:format>
        <dc:type
           rdf:resource="http://purl.org/dc/dcmitype/StillImage" />
        <dc:title></dc:title>
      </cc:Work>
    </rdf:RDF>
  </metadata>
  <g
     transform="translate(1490.7389,-878.90995)"
     id="layer1">
    <g
       transform="matrix(1.25,0,0,-1.25,-1592.8476,4864.1108)"
       id="g6609">
      <g
         id="g1078"
         transform="translate(487.8024,3166.6267)">
        <path
           d="M 0,0 C -6.318,6.668 -13.885,8.192 -22.432,5.801 -27.301,4.439 -31.277,2.059 -32.892,-3.186 -22.677,6.253 -11.616,5.509 0,0 m 2.05,-5.452 c -7.157,10.114 -29.162,9.388 -33.924,0 l 33.924,0 z m 52.826,-29.592 c -0.078,-0.006 -0.156,-0.013 -0.234,-0.019 0.341,-4.261 0.423,-8.565 1.116,-12.768 0.451,-2.734 2.34,-5.114 5.426,-4.841 3.11,0.274 3.808,3.067 3.811,5.691 0.008,5.799 0.034,11.618 -0.434,17.389 -0.18,2.229 -1.302,4.655 -2.714,6.412 -0.885,1.099 -3.262,1.748 -4.686,1.409 -1.007,-0.24 -2.037,-2.421 -2.183,-3.826 -0.326,-3.119 -0.102,-6.294 -0.102,-9.447 M -84.57,-37.529 c -0.132,0 -0.265,0 -0.397,0.001 0,3.533 0.233,7.088 -0.108,10.588 -0.149,1.526 -1.587,4.218 -2.246,4.16 -1.918,-0.167 -3.993,-1.149 -5.506,-2.412 -1.001,-0.835 -1.571,-2.697 -1.592,-4.11 -0.095,-6.558 -0.198,-13.141 0.318,-19.666 0.139,-1.755 2.196,-4.243 3.842,-4.697 1.183,-0.327 3.435,1.933 4.659,3.476 0.835,1.053 0.912,2.85 0.989,4.331 0.144,2.77 0.041,5.552 0.041,8.329 m 98.349,-91.584 c -0.032,0.354 -0.063,0.708 -0.095,1.063 l -60.253,0 c -0.084,-0.465 -0.168,-0.929 -0.252,-1.394 4.89,-1.217 9.735,-3.202 14.679,-3.49 10.19,-0.594 20.443,-0.023 30.649,-0.443 5.748,-0.237 10.436,2.005 15.272,4.264 m -58.774,61.443 c -0.326,0.016 -0.652,0.033 -0.978,0.05 -2.3,-13.563 -4.601,-27.125 -6.916,-40.769 l 11.477,0 c -3.648,8.4 -3.152,16.8 -1.676,25.266 0.082,0.473 0.32,1.054 0.681,1.32 3.056,2.247 1.788,4.798 0.592,7.357 -1.057,2.26 -2.12,4.517 -3.18,6.776 m 65.796,-71.58 c -0.463,-0.194 -0.925,-0.389 -1.387,-0.583 -0.981,3.931 -1.961,7.863 -2.941,11.794 -1.648,-7.348 0.177,-12.707 4.421,-14.713 4.909,-2.32 10.986,-1.518 14.063,1.856 2.752,3.019 3.498,9.126 1.445,12.437 -0.477,-3.176 -0.945,-6.287 -1.412,-9.399 -0.458,0.064 -0.915,0.128 -1.373,0.191 0.215,3.011 0.431,6.021 0.667,9.322 l -15.9,0 c 0.863,-3.893 1.64,-7.399 2.417,-10.905 m -72.77,11.805 c -5.355,-0.378 -10.272,-0.725 -15.608,-1.102 0.759,-3.957 1.409,-7.343 2.059,-10.729 -0.465,-0.115 -0.931,-0.231 -1.396,-0.346 -0.927,3.705 -1.853,7.409 -2.912,11.641 -2.145,-6.372 -0.195,-12.011 4.708,-14.927 4.319,-2.57 10.428,-1.849 13.6,1.606 2.832,3.083 3.632,10.402 1.513,13.299 -0.494,-3.078 -0.999,-6.225 -1.503,-9.372 -0.448,0.07 -0.895,0.139 -1.343,0.209 0.276,3.044 0.552,6.087 0.882,9.721 m 76.918,19.449 c -3.381,13.981 -6.672,27.586 -10.225,42.274 -1.529,-3.958 -2.542,-7.015 -3.887,-9.918 -1.032,-2.227 -1.45,-3.84 0.67,-5.917 1.371,-1.343 2.127,-3.779 2.298,-5.798 0.598,-7.064 1.695,-14.265 -2.694,-20.641 l 13.838,0 z m -71.826,44.157 c -5.052,0 -9.919,0.017 -14.785,-0.031 -0.432,-0.005 -0.978,-0.345 -1.269,-0.696 -3.967,-4.793 -7.899,-9.615 -11.954,-14.571 l 25.214,0 c 0.955,5.23 1.834,10.04 2.794,15.298 m 91.187,-15.435 0.44,1.021 c -3.948,4.358 -7.889,8.722 -11.856,13.064 -0.411,0.45 -0.968,1.08 -1.466,1.088 -4.927,0.082 -9.857,0.05 -15.02,0.05 1.079,-4.854 1.822,-8.805 2.904,-12.66 0.283,-1.006 1.602,-2.429 2.476,-2.451 7.503,-0.195 15.014,-0.112 22.522,-0.112 m -24.063,-1.76 c 2.338,-8.966 4.461,-17.232 6.707,-25.465 0.167,-0.615 1.205,-1.401 1.851,-1.413 5.873,-0.11 11.748,-0.065 18.188,-0.065 0,8.895 0.04,16.932 -0.075,24.966 -0.01,0.667 -1.071,1.882 -1.659,1.892 -8.14,0.125 -16.283,0.085 -25.012,0.085 m -97.93,-0.732 0,-26.741 22.892,0 c 1.53,9.157 2.992,17.913 4.467,26.741 l -27.359,0 z m 39.191,3.844 46.509,0 c 1.445,3.609 2.94,7.338 4.431,11.068 1.569,3.923 0.629,5.646 -3.686,5.666 -16.008,0.074 -32.018,0.002 -48.026,-0.145 -1.846,-0.017 -3.685,-0.845 -5.875,-1.382 2.436,-5.572 4.543,-10.393 6.647,-15.207 m 91.124,-39.116 c 0.28,4.864 -1.273,6.973 -5.398,7.415 -2.249,0.242 -4.539,0.16 -6.81,0.136 -30.802,-0.32 -61.604,-0.667 -92.406,-0.981 -8.079,-0.082 -16.16,0.016 -24.236,-0.149 -4.136,-0.085 -5.894,-2.319 -5.663,-6.421 l 134.513,0 z m -0.594,-3.585 c -0.223,0.516 -0.445,1.032 -0.667,1.548 l -132.641,0 c -0.199,-0.48 -0.397,-0.959 -0.596,-1.439 1.973,-1.539 3.732,-3.691 5.969,-4.466 3.012,-1.045 6.396,-1.433 9.612,-1.393 10.216,0.127 20.428,0.859 30.642,0.857 23.355,-0.005 46.71,-0.341 70.065,-0.448 3.132,-0.015 6.414,0.028 9.358,0.926 2.929,0.893 5.519,2.898 8.258,4.415 m -66.986,12.759 c 0.001,0.263 0.001,0.526 0.001,0.789 6.689,0 13.383,-0.161 20.064,0.055 4.631,0.15 6.196,1.572 6.524,6.185 0.33,4.631 0.315,9.34 -0.129,13.958 -0.472,4.904 -2.986,7.16 -8.033,7.185 -12.748,0.062 -25.498,-0.085 -38.243,-0.351 -4.467,-0.094 -6.403,-1.991 -6.727,-6.574 -0.329,-4.644 -0.247,-9.336 -0.055,-13.995 0.212,-5.147 2.126,-7.067 7.282,-7.209 6.434,-0.178 12.877,-0.043 19.316,-0.043 m 0.237,101.034 c 0,-1.597 -0.01,-2.332 10e-4,-3.066 0.22,-14.646 0.417,-29.293 0.676,-43.939 0.11,-6.229 -0.519,-4.996 5.518,-5.583 8.103,-0.789 16.699,2.489 24.3,-2.773 0.333,-0.231 0.983,0.001 1.485,0.01 2.651,0.046 5.343,-0.19 7.945,0.192 5.693,0.836 9.643,-1.767 13.063,-5.859 2.563,-3.066 5.246,-6.031 8.338,-9.572 0.208,1.467 0.383,2.16 0.393,2.856 0.266,19.571 0.428,39.144 0.809,58.712 C 47.975,-7.76 44.821,-1.569 38.665,3.551 23.248,16.376 4.486,17.103 -14.278,18.976 -14.396,17.568 -14.53,16.585 -14.551,15.599 -14.676,9.672 -14.668,9.672 -8.856,8.227 -1.521,6.404 4.213,0.196 4.538,-6.83 l -19.249,0 z m -2.522,25.905 c -1.058,0.099 -1.793,0.198 -2.531,0.232 -14.731,0.676 -28.395,-3.142 -41.706,-9.214 -12.011,-5.479 -18.079,-14.024 -17.718,-27.513 0.546,-20.435 0.487,-40.886 0.712,-61.33 0.003,-0.288 0.346,-0.571 0.645,-1.034 3.642,4.221 7.433,8.128 10.637,12.469 3.013,4.084 6.512,5.762 11.594,5.141 3.182,-0.388 6.523,0.009 9.729,0.481 3.152,0.464 6.199,1.969 9.337,2.13 6.65,0.341 13.329,0.104 19.91,0.104 l 0,51.852 c -5.441,0 -10.237,0.199 -15.007,-0.068 -3.306,-0.185 -3.983,1.21 -3.503,4.043 0.709,4.188 3.047,7.267 6.75,9.048 3.474,1.671 7.195,2.828 11.151,4.344 l 0,9.315 z m 72.474,-36.494 c -1.222,1.021 -2.872,2.398 -5.102,4.261 -0.103,-1.913 -0.191,-2.875 -0.201,-3.837 -0.286,-29.292 -0.585,-58.584 -0.774,-87.877 -0.008,-1.253 0.667,-2.936 1.607,-3.7 5.391,-4.382 5.625,-11.21 -0.186,-15.372 -3.061,-2.192 -6.945,-3.234 -10.711,-4.908 -1.524,-13.314 -4.241,-17.169 -12.504,-17.307 -8.905,-0.149 -12.351,3.393 -13.665,13.634 -19.969,-3.908 -39.851,-3.964 -60.092,0.128 -0.714,-3.86 -0.627,-9.228 -5.413,-11.73 -2.758,-1.443 -6.397,-2.522 -9.348,-2.026 -8.885,1.492 -11.799,5.943 -11.484,17.55 -1.977,0.82 -4.151,1.47 -6.073,2.563 -6.977,3.966 -7.771,10.849 -2.1,16.481 0.601,0.597 1.007,1.7 0.996,2.561 -0.404,30.173 -0.868,60.345 -1.336,90.517 -0.007,0.46 -0.177,0.917 -1.332,2.199 -1.209,-1.502 -2.419,-3.004 -3.872,-4.807 3.935,-3.078 3.767,-7.315 3.861,-11.436 0.118,-5.175 0.409,-10.372 0.055,-15.52 -0.18,-2.624 -1.006,-5.685 -2.655,-7.576 -1.364,-1.563 -4.567,-2.627 -6.582,-2.191 -1.806,0.392 -4.252,3.021 -4.426,4.851 -0.711,7.503 -0.73,15.078 -0.824,22.629 -0.016,1.299 0.447,3.114 1.362,3.83 5.359,4.195 6.3,12.585 13.936,14.611 0.61,0.162 1.223,1.274 1.379,2.037 1.73,8.427 7.5,13.351 14.509,17.454 18.684,10.938 38.84,13.744 59.947,10.893 8.612,-1.164 17.205,-2.739 25.655,-4.761 8.356,-1.999 15.573,-6.475 21.891,-12.316 1.017,-0.941 2.115,-1.878 2.849,-3.026 3.211,-5.021 6.745,-9.286 11.713,-13.169 10.371,-8.105 13.93,-22.694 11.026,-35.978 -0.692,-3.164 -2.309,-5.779 -5.76,-6.26 -3.619,-0.505 -6.04,1.617 -7.432,4.698 -0.812,1.798 -1.358,3.863 -1.419,5.826 -0.205,6.56 -0.334,13.136 -0.065,19.688 0.09,2.19 1.46,4.328 2.57,7.386"
           style="fill:#119ad5;fill-opacity:1;fill-rule:nonzero;stroke:none"
           id="path1080" />
      </g>
      <g
         id="g1082"
         transform="translate(415.6011,3149.0957)">
        <path
           d="m 0,0 c 0.002,-0.26 0.004,-0.519 0.006,-0.779 l 48.741,0 C 48.746,-0.519 48.744,-0.26 48.742,0 L 0,0 Z m 0.009,-35.705 48.786,0 0,32.792 -48.786,0 0,-32.792 z m 50.487,37.26 c 0,-9.653 0.01,-18.716 -0.008,-27.779 -0.005,-2.019 -0.118,-4.037 -0.168,-6.057 -0.125,-5.163 -0.121,-5.31 -5.115,-5.346 -14.643,-0.107 -29.286,-0.049 -43.928,-0.151 -2.559,-0.018 -3.53,0.752 -3.484,3.472 0.185,10.981 0.181,21.965 0.163,32.948 -0.003,1.785 0.27,2.928 2.375,2.925 C 16.968,1.545 33.606,1.555 50.496,1.555"
           style="fill:#119ad5;fill-opacity:1;fill-rule:nonzero;stroke:none"
           id="path1084" />
      </g>
      <g
         id="g1086"
         transform="translate(431.7342,3163.5693)">
        <path
           d="M 0,0 C -1.825,1.171 -3.164,2.615 -3.884,2.354 -4.937,1.972 -5.901,0.449 -6.182,-0.756 -6.309,-1.299 -4.5,-3.008 -3.917,-2.855 -2.702,-2.539 -1.717,-1.335 0,0 m 4.946,-4.053 c 1.385,1.754 2.95,2.878 2.892,3.91 C 7.782,0.858 6.057,1.764 5.064,2.712 4.112,1.67 2.698,0.749 2.381,-0.46 2.188,-1.197 3.685,-2.377 4.946,-4.053 m -7.213,-0.74 c 2.868,0 6.237,0.029 9.605,-0.007 4.57,-0.047 5.913,1.56 3.891,5.74 C 10.255,2.954 8.045,4.717 5.973,5.747 4.186,6.635 1.806,6.414 -0.319,6.523 -7.497,6.894 -11.006,2.569 -9.218,-4.715 -8.089,-4.776 -6.879,-4.842 -5.453,-4.919 -8.4,-1.133 -8.666,1.314 -6.232,3.072 -2.9,5.476 -1.136,2.634 0.683,0.482 3.664,4.4 5.738,4.993 8.169,2.675 10.184,0.754 9.526,-1.263 7.933,-2.983 5.771,-5.318 3.264,-4.73 0.669,-1.706 -0.369,-2.797 -1.425,-3.907 -2.267,-4.793 m 2.546,-1.465 c -2.764,0 -5.536,0.124 -8.291,-0.038 -2.317,-0.136 -3.034,0.929 -3.283,3.037 -0.685,5.782 2.057,10.13 7.793,10.892 C -0.106,8.084 3.557,7.864 6.899,7.082 12.03,5.881 14.369,0.833 12.43,-4.199 12.07,-5.136 10.437,-6.039 9.318,-6.14 6.326,-6.408 3.295,-6.231 0.279,-6.231 c 0,-0.009 0,-0.018 0,-0.027"
           style="fill:#119ad5;fill-opacity:1;fill-rule:nonzero;stroke:none"
           id="path1088" />
      </g>
      <g
         id="g1090"
         transform="translate(525.5669,3148.1035)">
        <path
           d="M 0,0 C -0.006,0.396 -0.012,0.791 -0.018,1.186 -16.26,1.721 -32.499,1.812 -48.732,1.117 -48.729,0.744 -48.726,0.372 -48.723,0 L 0,0 Z m 0.111,-2.051 c -0.108,0.059 -0.322,0.277 -0.536,0.278 -15.382,0.039 -30.765,0.034 -46.147,0.114 -2.392,0.012 -2.525,-1.235 -2.508,-3.129 0.079,-8.824 0.03,-17.649 0.05,-26.474 0.003,-1.21 0.133,-2.42 0.193,-3.448 l 48.948,0 0,32.659 z M -50.873,2.3 c 3.005,0.193 5.503,0.495 8.001,0.492 13.761,-0.017 27.522,-0.164 41.283,-0.13 2.98,0.008 3.847,-1.027 3.748,-4.004 -0.352,-10.6 -0.484,-21.21 -0.562,-31.817 -0.017,-2.335 -0.617,-3.482 -3.147,-3.483 -15.531,-0.005 -31.062,-0.086 -46.593,-0.156 -1.777,-0.008 -2.777,0.488 -2.764,2.584 0.071,11.982 0.034,23.965 0.034,36.514"
           style="fill:#119ad5;fill-opacity:1;fill-rule:nonzero;stroke:none"
           id="path1092" />
      </g>
      <g
         id="g1094"
         transform="translate(507.912,3158.8376)">
        <path
           d="m 0,0 c 0,0.031 0,0.062 0,0.093 2.517,0 5.037,0.075 7.55,-0.019 2.989,-0.112 3.642,1.442 3.307,4.058 -0.511,3.98 -3.206,6.559 -7.613,7.081 C -4.529,12.135 -8.772,10.71 -10.249,6.664 -10.42,6.195 -10.507,5.69 -10.59,5.194 -11.339,0.714 -10.597,-0.113 -6.033,-0.008 -4.023,0.039 -2.011,0 0,0 m -0.159,-1.291 c -2.889,0 -5.784,0.121 -8.664,-0.036 -2.483,-0.136 -3.236,0.963 -3.386,3.287 -0.396,6.134 2.377,10.071 8.468,10.721 3.173,0.339 6.565,0.101 9.664,-0.665 5.33,-1.318 7.714,-6.565 5.505,-11.558 -0.369,-0.835 -1.89,-1.546 -2.931,-1.626 -2.871,-0.221 -5.769,-0.076 -8.656,-0.076 0,-0.016 0,-0.031 0,-0.047"
           style="fill:#119ad5;fill-opacity:1;fill-rule:nonzero;stroke:none"
           id="path1096" />
      </g>
      <g
         id="g1098"
         transform="translate(448.1341,3066.1335)">
        <path
           d="m 0,0 c 0.945,0.272 1.889,0.775 2.835,0.78 13.591,0.074 27.182,0.108 40.773,0.04 0.865,-0.005 1.724,-0.935 2.587,-1.435 -0.833,-0.512 -1.664,-1.468 -2.497,-1.469 -13.465,-0.028 -26.93,0.048 -40.394,0.168 -1.103,0.01 -2.201,0.509 -3.301,0.78 C 0.002,-0.757 0.001,-0.378 0,0"
           style="fill:#119ad5;fill-opacity:1;fill-rule:nonzero;stroke:none"
           id="path1100" />
      </g>
      <g
         id="g1102"
         transform="translate(494.8169,3071.759)">
        <path
           d="m 0,0 c -1.151,-0.133 -2.301,-0.377 -3.452,-0.383 -13.217,-0.064 -26.433,-0.091 -39.65,-0.129 -0.755,-0.002 -1.584,-0.214 -2.245,0.031 -0.69,0.256 -1.218,0.947 -1.817,1.448 0.517,0.451 0.968,1.082 1.57,1.304 0.676,0.251 1.489,0.168 2.243,0.168 13.343,0.006 26.686,0.025 40.029,-0.04 C -2.139,2.393 -0.958,1.827 0.224,1.521 0.149,1.014 0.075,0.507 0,0"
           style="fill:#119ad5;fill-opacity:1;fill-rule:nonzero;stroke:none"
           id="path1104" />
      </g>
      <g
         id="g1106"
         transform="translate(470.5724,3078.0308)">
        <path
           d="m 0,0 c -6.793,0 -13.587,-0.055 -20.379,0.059 -1.014,0.017 -2.016,0.823 -3.024,1.264 0.971,0.482 1.935,1.37 2.912,1.384 13.585,0.2 27.172,0.318 40.759,0.319 1.09,0 2.179,-1.008 3.269,-1.548 C 22.486,1.074 21.44,0.337 20.383,0.321 13.59,0.215 6.794,0.267 0,0.267 L 0,0 Z"
           style="fill:#119ad5;fill-opacity:1;fill-rule:nonzero;stroke:none"
           id="path1108" />
      </g>
      <g
         id="g1110"
         transform="translate(485.5434,3037.5259)">
        <path
           d="m 0,0 c -9.82,-0.774 -19.736,-1.627 -29.511,-0.018 0.023,0.429 0.046,0.858 0.069,1.287 C -19.628,0.846 -9.814,0.423 0,0"
           style="fill:#119ad5;fill-opacity:1;fill-rule:nonzero;stroke:none"
           id="path1112" />
      </g>
      <g
         id="g1114"
         transform="translate(399.2925,3145.1853)">
        <path
           d="M 0,0 0,-26.17 C -4.341,-23.187 -3.564,-2.722 0,0"
           style="fill:#119ad5;fill-opacity:1;fill-rule:nonzero;stroke:none"
           id="path1116" />
      </g>
      <g
         id="g1118"
         transform="translate(548.9714,3121.9949)">
        <path
           d="M 0,0 C -0.979,8.79 -1.931,17.341 -2.87,25.768 0.816,24.174 3.46,4.05 0,0"
           style="fill:#119ad5;fill-opacity:1;fill-rule:nonzero;stroke:none"
           id="path1120" />
      </g>
      <g
         id="g1122"
         transform="translate(450.6577,3143.1697)">
        <path
           d="M 0,0 C -10.242,-8.573 -20.484,-17.145 -31.045,-25.984 -29.572,-21.628 -5.465,-1.004 0,0"
           style="fill:#119ad5;fill-opacity:1;fill-rule:nonzero;stroke:none"
           id="path1124" />
      </g>
      <g
         id="g1126"
         transform="translate(458.225,3141.3503)">
        <path
           d="m 0,0 c -8.127,-6.854 -16.254,-13.709 -24.381,-20.563 -0.238,0.266 -0.476,0.533 -0.713,0.8 C -17.18,-12.665 -9.265,-5.568 -1.35,1.53 -0.9,1.02 -0.45,0.51 0,0"
           style="fill:#119ad5;fill-opacity:1;fill-rule:nonzero;stroke:none"
           id="path1128" />
      </g>
      <g
         id="g1130"
         transform="translate(480.3805,3118.3411)">
        <path
           d="m 0,0 c 9.576,9.369 19.789,17.987 30.558,25.951 0.314,-0.365 0.627,-0.729 0.941,-1.093 C 21.274,16.282 11.048,7.706 0.823,-0.87 0.549,-0.58 0.274,-0.29 0,0"
           style="fill:#119ad5;fill-opacity:1;fill-rule:nonzero;stroke:none"
           id="path1132" />
      </g>
      <g
         id="g1134"
         transform="translate(495.0223,3122.1848)">
        <path
           d="M 0,0 C 7.655,6.896 15.31,13.793 22.965,20.689 23.391,20.206 23.817,19.723 24.244,19.24 16.638,12.318 8.615,5.865 0.748,-0.764 0.499,-0.509 0.249,-0.255 0,0"
           style="fill:#119ad5;fill-opacity:1;fill-rule:nonzero;stroke:none"
           id="path1136" />
      </g>
      <g
         id="g1138"
         transform="translate(503.3973,3167.325)">
        <path
           d="m 0,0 c -1.268,-1.658 -2.586,-2.626 -2.599,-3.612 -0.014,-0.973 1.292,-1.965 2.018,-2.949 1.019,0.907 2.528,1.658 2.885,2.776 C 2.542,-3.039 1.141,-1.769 0,0 m 12.689,-3.58 c -1.785,1.267 -3.19,2.828 -3.778,2.565 -1.244,-0.557 -2.061,-2.067 -3.053,-3.186 0.977,-0.758 2.021,-2.195 2.916,-2.107 1.154,0.112 2.188,1.445 3.915,2.728 m -8.53,0.499 c 3.161,3.89 5.198,4.507 7.611,2.215 1.994,-1.895 1.397,-3.9 -0.2,-5.641 C 9.329,-8.951 7,-8.444 4.159,-5.055 0.398,-8.528 -1.37,-8.933 -3.265,-6.596 c -1.862,2.296 -1.448,4.648 0.832,6.208 3.236,2.213 4.917,-0.484 6.592,-2.693"
           style="fill:#119ad5;fill-opacity:1;fill-rule:nonzero;stroke:none"
           id="path1140" />
      </g>
      <g
         id="g1142"
         transform="translate(708.2968,3067.1624)">
        <path
           d="M 0,0 C 2.876,-0.069 5.512,0.807 4.997,3.003 4.762,4.008 2.052,5.293 0.272,5.403 -3.155,5.613 -6.725,3.397 -6.286,1.832 -5.636,-0.483 -2.987,-0.347 0,0"
           style="fill:#119ad5;fill-opacity:1;fill-rule:nonzero;stroke:none"
           id="path1144" />
      </g>
      <g
         id="g1146"
         transform="translate(730.2208,3066.2944)">
        <path
           d="M 0,0 C 4.227,0.375 6.899,1.237 6.165,3.287 5.786,4.346 3.208,5.462 1.339,5.703 -1.01,6.005 -4.429,3.359 -3.514,2.103 -2.745,1.047 -0.728,0.409 0,0"
           style="fill:#119ad5;fill-opacity:1;fill-rule:nonzero;stroke:none"
           id="path1148" />
      </g>
      <g
         id="g1150"
         transform="translate(778.3065,3059.2537)">
        <path
           d="M 0,0 C 1.994,1.969 4.028,3.105 4.124,4.272 4.28,6.171 1.799,6.986 -0.955,6.755 -3.549,6.536 -5.633,5.432 -4.847,3.651 -4.338,2.495 -2.302,1.664 0,0"
           style="fill:#119ad5;fill-opacity:1;fill-rule:nonzero;stroke:none"
           id="path1152" />
      </g>
      <g
         id="g1154"
         transform="translate(753.6637,3069.8079)">
        <path
           d="m 0,0 c -1.041,-1.167 -2.788,-2.305 -2.956,-3.509 -0.254,-1.818 1.964,-2.668 4.618,-2.445 2.706,0.226 4.419,1.512 3.754,3.206 C 4.982,-1.643 3.076,-0.819 1.829,0.13 1.22,0.087 0.61,0.043 0,0"
           style="fill:#119ad5;fill-opacity:1;fill-rule:nonzero;stroke:none"
           id="path1156" />
      </g>
      <g
         id="g1158"
         transform="translate(835.1714,3043.7461)">
        <path
           d="M 0,0 C 1.613,-0.611 3.159,-1.649 4.855,-1.733 7.464,-1.862 9.464,-0.511 8.787,1.175 8.369,2.219 6.118,3.598 4.69,3.57 3.086,3.539 1.483,2.091 -0.12,1.26 -0.08,0.84 -0.04,0.42 0,0"
           style="fill:#119ad5;fill-opacity:1;fill-rule:nonzero;stroke:none"
           id="path1160" />
      </g>
      <g
         id="g1162"
         transform="translate(815.8727,3051.9695)">
        <path
           d="M 0,0 C 1.631,-0.625 3.204,-1.707 4.907,-1.769 7.426,-1.861 9.191,-0.659 8.953,1.196 8.745,2.818 7.241,4.035 4.757,3.581 2.963,3.253 1.494,2.055 -0.121,1.245 -0.08,0.83 -0.04,0.415 0,0"
           style="fill:#119ad5;fill-opacity:1;fill-rule:nonzero;stroke:none"
           id="path1164" />
      </g>
      <g
         id="g1166"
         transform="translate(853.4483,3034.1072)">
        <path
           d="M 0,0 C 1.711,-0.489 3.428,-1.409 5.133,-1.366 7.734,-1.3 9.582,0.131 8.566,1.796 7.957,2.793 5.525,3.971 4.1,3.847 2.511,3.709 1.135,2.188 -0.334,1.268 -0.223,0.845 -0.111,0.423 0,0"
           style="fill:#119ad5;fill-opacity:1;fill-rule:nonzero;stroke:none"
           id="path1168" />
      </g>
      <g
         id="g1170"
         transform="translate(678.8881,3065.4722)">
        <path
           d="M 0,0 C 4.227,0.375 6.899,1.237 6.165,3.288 5.786,4.346 3.208,5.462 1.339,5.703 -1.01,6.005 -4.429,3.359 -3.514,2.103 -2.745,1.047 -0.728,0.409 0,0"
           style="fill:#119ad5;fill-opacity:1;fill-rule:nonzero;stroke:none"
           id="path1172" />
      </g>
      <g
         id="g1174"
         transform="translate(626.1476,3054.8513)">
        <path
           d="M 0,0 C 4.227,0.375 6.899,1.237 6.165,3.287 5.786,4.346 3.208,5.462 1.339,5.703 -1.01,6.005 -4.429,3.359 -3.514,2.103 -2.745,1.047 -0.728,0.409 0,0"
           style="fill:#119ad5;fill-opacity:1;fill-rule:nonzero;stroke:none"
           id="path1176" />
      </g>
      <g
         id="g1178"
         transform="translate(602.9956,3047.3569)">
        <path
           d="M 0,0 C 4.227,0.375 6.899,1.237 6.165,3.287 5.786,4.346 3.208,5.462 1.339,5.703 -1.01,6.005 -4.429,3.359 -3.514,2.103 -2.745,1.047 -0.728,0.409 0,0"
           style="fill:#119ad5;fill-opacity:1;fill-rule:nonzero;stroke:none"
           id="path1180" />
      </g>
      <g
         id="g1182"
         transform="translate(649.19,3063.5383)">
        <path
           d="M 0,0 C 1.711,-0.489 3.428,-1.409 5.133,-1.365 7.734,-1.299 9.582,0.131 8.566,1.796 7.957,2.793 5.525,3.971 4.1,3.847 2.512,3.709 1.135,2.188 -0.334,1.269 L 0,0 Z"
           style="fill:#119ad5;fill-opacity:1;fill-rule:nonzero;stroke:none"
           id="path1184" />
      </g>
      <g
         id="g1186"
         transform="translate(580.0482,3041.1365)">
        <path
           d="M 0,0 C 4.227,0.375 6.899,1.237 6.165,3.287 5.786,4.346 3.208,5.462 1.339,5.703 -1.01,6.005 -4.429,3.359 -3.514,2.103 -2.745,1.047 -0.728,0.409 0,0"
           style="fill:#119ad5;fill-opacity:1;fill-rule:nonzero;stroke:none"
           id="path1188" />
      </g>
      <g
         id="g1190"
         transform="translate(564.3729,3037.3264)">
        <path
           d="M 0,0 C -0.44,2.794 -1.662,4.542 -4.776,3.995 -6.383,3.712 -8.142,1.968 -8.56,0.72 -9.086,-0.848 -5.197,-3.038 -3.276,-2.395 -1.66,-1.853 -0.639,-0.495 0,0"
           style="fill:#119ad5;fill-opacity:1;fill-rule:nonzero;stroke:none"
           id="path1192" />
      </g>
      <g
         id="g1194"
         transform="translate(803.2706,3058.0078)">
        <path
           d="M 0,0 C -0.44,2.794 -1.662,4.542 -4.776,3.995 -6.383,3.712 -8.142,1.968 -8.56,0.72 -9.086,-0.848 -5.197,-3.038 -3.276,-2.394 -1.66,-1.853 -0.639,-0.495 0,0"
           style="fill:#119ad5;fill-opacity:1;fill-rule:nonzero;stroke:none"
           id="path1196" />
      </g>
      <g
         id="g1198"
         transform="translate(235.6879,3067.1624)">
        <path
           d="m 0,0 c -2.876,-0.069 -5.512,0.807 -4.997,3.003 0.235,1.005 2.945,2.29 4.725,2.4 C 3.155,5.613 6.725,3.397 6.286,1.832 5.636,-0.483 2.987,-0.347 0,0"
           style="fill:#119ad5;fill-opacity:1;fill-rule:nonzero;stroke:none"
           id="path1200" />
      </g>
      <g
         id="g1202"
         transform="translate(213.7639,3066.2944)">
        <path
           d="m 0,0 c -4.227,0.375 -6.899,1.237 -6.165,3.287 0.379,1.059 2.957,2.175 4.826,2.416 C 1.01,6.005 4.429,3.359 3.514,2.103 2.745,1.047 0.728,0.409 0,0"
           style="fill:#119ad5;fill-opacity:1;fill-rule:nonzero;stroke:none"
           id="path1204" />
      </g>
      <g
         id="g1206"
         transform="translate(165.6781,3059.2537)">
        <path
           d="M 0,0 C -1.994,1.969 -4.028,3.105 -4.124,4.272 -4.28,6.171 -1.799,6.986 0.955,6.755 3.549,6.536 5.633,5.432 4.847,3.651 4.338,2.495 2.302,1.664 0,0"
           style="fill:#119ad5;fill-opacity:1;fill-rule:nonzero;stroke:none"
           id="path1208" />
      </g>
      <g
         id="g1210"
         transform="translate(190.321,3069.8079)">
        <path
           d="m 0,0 c 1.041,-1.167 2.788,-2.305 2.956,-3.509 0.254,-1.818 -1.964,-2.668 -4.618,-2.445 -2.706,0.226 -4.419,1.512 -3.754,3.206 0.433,1.105 2.34,1.929 3.587,2.878 C -1.22,0.087 -0.61,0.043 0,0"
           style="fill:#119ad5;fill-opacity:1;fill-rule:nonzero;stroke:none"
           id="path1212" />
      </g>
      <g
         id="g1214"
         transform="translate(108.8133,3043.7461)">
        <path
           d="M 0,0 C -1.613,-0.611 -3.159,-1.649 -4.855,-1.733 -7.464,-1.862 -9.464,-0.511 -8.787,1.175 -8.369,2.219 -6.118,3.598 -4.69,3.57 -3.087,3.539 -1.483,2.091 0.12,1.26 0.08,0.84 0.04,0.42 0,0"
           style="fill:#119ad5;fill-opacity:1;fill-rule:nonzero;stroke:none"
           id="path1216" />
      </g>
      <g
         id="g1218"
         transform="translate(128.1119,3051.9695)">
        <path
           d="m 0,0 c -1.631,-0.625 -3.204,-1.707 -4.907,-1.769 -2.519,-0.092 -4.285,1.11 -4.047,2.965 0.209,1.622 1.713,2.839 4.197,2.385 C -2.963,3.253 -1.494,2.055 0.121,1.245 0.08,0.83 0.04,0.415 0,0"
           style="fill:#119ad5;fill-opacity:1;fill-rule:nonzero;stroke:none"
           id="path1220" />
      </g>
      <g
         id="g1222"
         transform="translate(90.5364,3034.1072)">
        <path
           d="M 0,0 C -1.711,-0.489 -3.428,-1.409 -5.133,-1.366 -7.734,-1.3 -9.582,0.131 -8.566,1.796 -7.957,2.793 -5.525,3.971 -4.1,3.847 -2.512,3.709 -1.135,2.188 0.334,1.268 0.223,0.845 0.111,0.423 0,0"
           style="fill:#119ad5;fill-opacity:1;fill-rule:nonzero;stroke:none"
           id="path1224" />
      </g>
      <g
         id="g1226"
         transform="translate(265.0966,3065.4722)">
        <path
           d="m 0,0 c -4.227,0.375 -6.899,1.237 -6.165,3.288 0.379,1.058 2.957,2.174 4.826,2.415 C 1.01,6.005 4.429,3.359 3.514,2.103 2.745,1.047 0.728,0.409 0,0"
           style="fill:#119ad5;fill-opacity:1;fill-rule:nonzero;stroke:none"
           id="path1228" />
      </g>
      <g
         id="g1230"
         transform="translate(317.837,3054.8513)">
        <path
           d="m 0,0 c -4.227,0.375 -6.899,1.237 -6.165,3.287 0.379,1.059 2.957,2.175 4.826,2.416 C 1.01,6.005 4.429,3.359 3.514,2.103 2.745,1.047 0.728,0.409 0,0"
           style="fill:#119ad5;fill-opacity:1;fill-rule:nonzero;stroke:none"
           id="path1232" />
      </g>
      <g
         id="g1234"
         transform="translate(340.989,3047.3569)">
        <path
           d="m 0,0 c -4.227,0.375 -6.899,1.237 -6.165,3.287 0.379,1.059 2.957,2.175 4.826,2.416 C 1.01,6.005 4.429,3.359 3.514,2.103 2.745,1.047 0.728,0.409 0,0"
           style="fill:#119ad5;fill-opacity:1;fill-rule:nonzero;stroke:none"
           id="path1236" />
      </g>
      <g
         id="g1238"
         transform="translate(294.7946,3063.5383)">
        <path
           d="M 0,0 C -1.711,-0.489 -3.428,-1.409 -5.133,-1.365 -7.734,-1.299 -9.582,0.131 -8.566,1.796 -7.957,2.793 -5.525,3.971 -4.1,3.847 -2.512,3.709 -1.135,2.188 0.334,1.269 0.223,0.846 0.111,0.423 0,0"
           style="fill:#119ad5;fill-opacity:1;fill-rule:nonzero;stroke:none"
           id="path1240" />
      </g>
      <g
         id="g1242"
         transform="translate(363.9364,3041.1365)">
        <path
           d="m 0,0 c -4.227,0.375 -6.899,1.237 -6.165,3.287 0.379,1.059 2.957,2.175 4.826,2.416 C 1.01,6.005 4.429,3.359 3.514,2.103 2.745,1.047 0.728,0.409 0,0"
           style="fill:#119ad5;fill-opacity:1;fill-rule:nonzero;stroke:none"
           id="path1244" />
      </g>
      <g
         id="g1246"
         transform="translate(379.6118,3037.3264)">
        <path
           d="M 0,0 C 0.44,2.794 1.662,4.542 4.776,3.995 6.383,3.712 8.142,1.968 8.56,0.72 9.086,-0.848 5.197,-3.038 3.275,-2.395 1.66,-1.853 0.639,-0.495 0,0"
           style="fill:#119ad5;fill-opacity:1;fill-rule:nonzero;stroke:none"
           id="path1248" />
      </g>
      <g
         id="g1250"
         transform="translate(140.714,3058.0078)">
        <path
           d="M 0,0 C 0.44,2.794 1.662,4.542 4.776,3.995 6.383,3.712 8.142,1.968 8.56,0.72 9.086,-0.848 5.197,-3.038 3.275,-2.394 1.66,-1.853 0.639,-0.495 0,0"
           style="fill:#119ad5;fill-opacity:1;fill-rule:nonzero;stroke:none"
           id="path1252" />
      </g>
    </g>
  </g>
</svg>
